<mxfile host="app.diagrams.net" modified="2023-06-03T15:52:07.221Z" agent="Mozilla/5.0 (Windows NT 10.0; Win64; x64) AppleWebKit/537.36 (KHTML, like Gecko) Chrome/113.0.0.0 Safari/537.36 Edg/113.0.1774.57" etag="Z6oLhMNqfTG_uOzA3ZjW" version="21.3.6" type="github">
  <diagram id="R2lEEEUBdFMjLlhIrx00" name="Page-1">
    <mxGraphModel dx="1588" dy="924" grid="1" gridSize="10" guides="1" tooltips="1" connect="1" arrows="1" fold="1" page="1" pageScale="1" pageWidth="850" pageHeight="1100" math="0" shadow="0" extFonts="Permanent Marker^https://fonts.googleapis.com/css?family=Permanent+Marker">
      <root>
        <mxCell id="0" />
        <mxCell id="1" parent="0" />
        <mxCell id="EjjpVAKhFwh3DGJ-wKah-2" style="rounded=0;orthogonalLoop=1;jettySize=auto;html=1;exitX=0;exitY=0;exitDx=0;exitDy=0;entryX=0.5;entryY=1;entryDx=0;entryDy=0;endArrow=none;endFill=0;" edge="1" parent="1" source="EjjpVAKhFwh3DGJ-wKah-10" target="EjjpVAKhFwh3DGJ-wKah-12">
          <mxGeometry relative="1" as="geometry" />
        </mxCell>
        <mxCell id="EjjpVAKhFwh3DGJ-wKah-3" style="rounded=0;orthogonalLoop=1;jettySize=auto;html=1;exitX=0;exitY=0.25;exitDx=0;exitDy=0;entryX=1;entryY=0.5;entryDx=0;entryDy=0;endArrow=none;endFill=0;" edge="1" parent="1" source="EjjpVAKhFwh3DGJ-wKah-10" target="EjjpVAKhFwh3DGJ-wKah-13">
          <mxGeometry relative="1" as="geometry" />
        </mxCell>
        <mxCell id="EjjpVAKhFwh3DGJ-wKah-4" style="rounded=0;orthogonalLoop=1;jettySize=auto;html=1;exitX=0;exitY=0;exitDx=0;exitDy=0;entryX=1;entryY=1;entryDx=0;entryDy=0;endArrow=none;endFill=0;" edge="1" parent="1" source="EjjpVAKhFwh3DGJ-wKah-10" target="EjjpVAKhFwh3DGJ-wKah-11">
          <mxGeometry relative="1" as="geometry" />
        </mxCell>
        <mxCell id="EjjpVAKhFwh3DGJ-wKah-5" style="rounded=0;orthogonalLoop=1;jettySize=auto;html=1;exitX=0;exitY=0.5;exitDx=0;exitDy=0;entryX=0.681;entryY=0.111;entryDx=0;entryDy=0;entryPerimeter=0;endArrow=none;endFill=0;" edge="1" parent="1" source="EjjpVAKhFwh3DGJ-wKah-10" target="EjjpVAKhFwh3DGJ-wKah-18">
          <mxGeometry relative="1" as="geometry" />
        </mxCell>
        <mxCell id="EjjpVAKhFwh3DGJ-wKah-6" style="rounded=0;orthogonalLoop=1;jettySize=auto;html=1;exitX=0;exitY=1;exitDx=0;exitDy=0;entryX=1;entryY=0;entryDx=0;entryDy=0;endArrow=none;endFill=0;" edge="1" parent="1" source="EjjpVAKhFwh3DGJ-wKah-10" target="EjjpVAKhFwh3DGJ-wKah-17">
          <mxGeometry relative="1" as="geometry" />
        </mxCell>
        <mxCell id="EjjpVAKhFwh3DGJ-wKah-7" style="rounded=0;orthogonalLoop=1;jettySize=auto;html=1;exitX=0.25;exitY=1;exitDx=0;exitDy=0;endArrow=none;endFill=0;" edge="1" parent="1" source="EjjpVAKhFwh3DGJ-wKah-10" target="EjjpVAKhFwh3DGJ-wKah-14">
          <mxGeometry relative="1" as="geometry" />
        </mxCell>
        <mxCell id="EjjpVAKhFwh3DGJ-wKah-8" style="rounded=0;orthogonalLoop=1;jettySize=auto;html=1;exitX=0.25;exitY=0;exitDx=0;exitDy=0;entryX=0;entryY=1;entryDx=0;entryDy=0;endArrow=none;endFill=0;" edge="1" parent="1" source="EjjpVAKhFwh3DGJ-wKah-10" target="EjjpVAKhFwh3DGJ-wKah-15">
          <mxGeometry relative="1" as="geometry" />
        </mxCell>
        <mxCell id="EjjpVAKhFwh3DGJ-wKah-9" style="rounded=0;orthogonalLoop=1;jettySize=auto;html=1;exitX=0.5;exitY=0;exitDx=0;exitDy=0;entryX=0;entryY=1;entryDx=0;entryDy=0;endArrow=none;endFill=0;" edge="1" parent="1" source="EjjpVAKhFwh3DGJ-wKah-10" target="EjjpVAKhFwh3DGJ-wKah-16">
          <mxGeometry relative="1" as="geometry" />
        </mxCell>
        <mxCell id="EjjpVAKhFwh3DGJ-wKah-10" value="Donor" style="rounded=1;arcSize=21;whiteSpace=wrap;html=1;align=center;" vertex="1" parent="1">
          <mxGeometry x="330" y="480" width="100" height="40" as="geometry" />
        </mxCell>
        <mxCell id="EjjpVAKhFwh3DGJ-wKah-11" value="Sex" style="ellipse;whiteSpace=wrap;html=1;align=center;" vertex="1" parent="1">
          <mxGeometry x="150" y="380" width="100" height="40" as="geometry" />
        </mxCell>
        <mxCell id="EjjpVAKhFwh3DGJ-wKah-12" value="&lt;u&gt;DonorID&lt;/u&gt;" style="ellipse;whiteSpace=wrap;html=1;align=center;fillColor=default;" vertex="1" parent="1">
          <mxGeometry x="240" y="310" width="100" height="40" as="geometry" />
        </mxCell>
        <mxCell id="EjjpVAKhFwh3DGJ-wKah-13" value="Address" style="ellipse;whiteSpace=wrap;html=1;align=center;" vertex="1" parent="1">
          <mxGeometry x="140" y="460" width="100" height="40" as="geometry" />
        </mxCell>
        <mxCell id="EjjpVAKhFwh3DGJ-wKah-14" value="Blood Group" style="ellipse;whiteSpace=wrap;html=1;align=center;" vertex="1" parent="1">
          <mxGeometry x="280" y="680" width="100" height="40" as="geometry" />
        </mxCell>
        <mxCell id="EjjpVAKhFwh3DGJ-wKah-15" value="Name" style="ellipse;whiteSpace=wrap;html=1;align=center;" vertex="1" parent="1">
          <mxGeometry x="380" y="310" width="100" height="40" as="geometry" />
        </mxCell>
        <mxCell id="EjjpVAKhFwh3DGJ-wKah-16" value="Age" style="ellipse;whiteSpace=wrap;html=1;align=center;" vertex="1" parent="1">
          <mxGeometry x="500" y="320" width="100" height="40" as="geometry" />
        </mxCell>
        <mxCell id="EjjpVAKhFwh3DGJ-wKah-17" value="PhoneNum" style="ellipse;whiteSpace=wrap;html=1;align=center;" vertex="1" parent="1">
          <mxGeometry x="170" y="620" width="100" height="40" as="geometry" />
        </mxCell>
        <mxCell id="EjjpVAKhFwh3DGJ-wKah-18" value="CNIC" style="ellipse;whiteSpace=wrap;html=1;align=center;" vertex="1" parent="1">
          <mxGeometry x="150" y="540" width="100" height="40" as="geometry" />
        </mxCell>
        <mxCell id="EjjpVAKhFwh3DGJ-wKah-19" style="rounded=0;orthogonalLoop=1;jettySize=auto;html=1;exitX=0.5;exitY=0;exitDx=0;exitDy=0;entryX=0;entryY=1;entryDx=0;entryDy=0;endArrow=none;endFill=0;" edge="1" parent="1" source="EjjpVAKhFwh3DGJ-wKah-29" target="EjjpVAKhFwh3DGJ-wKah-30">
          <mxGeometry relative="1" as="geometry" />
        </mxCell>
        <mxCell id="EjjpVAKhFwh3DGJ-wKah-20" style="rounded=0;orthogonalLoop=1;jettySize=auto;html=1;exitX=0.75;exitY=0;exitDx=0;exitDy=0;entryX=0;entryY=1;entryDx=0;entryDy=0;endArrow=none;endFill=0;" edge="1" parent="1" source="EjjpVAKhFwh3DGJ-wKah-29" target="EjjpVAKhFwh3DGJ-wKah-38">
          <mxGeometry relative="1" as="geometry" />
        </mxCell>
        <mxCell id="EjjpVAKhFwh3DGJ-wKah-21" style="rounded=0;orthogonalLoop=1;jettySize=auto;html=1;exitX=1;exitY=0;exitDx=0;exitDy=0;entryX=0;entryY=1;entryDx=0;entryDy=0;endArrow=none;endFill=0;" edge="1" parent="1" source="EjjpVAKhFwh3DGJ-wKah-29" target="EjjpVAKhFwh3DGJ-wKah-35">
          <mxGeometry relative="1" as="geometry" />
        </mxCell>
        <mxCell id="EjjpVAKhFwh3DGJ-wKah-22" style="rounded=0;orthogonalLoop=1;jettySize=auto;html=1;exitX=1;exitY=0.25;exitDx=0;exitDy=0;endArrow=none;endFill=0;" edge="1" parent="1" source="EjjpVAKhFwh3DGJ-wKah-29" target="EjjpVAKhFwh3DGJ-wKah-59">
          <mxGeometry relative="1" as="geometry" />
        </mxCell>
        <mxCell id="EjjpVAKhFwh3DGJ-wKah-23" style="rounded=0;orthogonalLoop=1;jettySize=auto;html=1;exitX=1;exitY=0.5;exitDx=0;exitDy=0;entryX=0;entryY=0.5;entryDx=0;entryDy=0;endArrow=none;endFill=0;" edge="1" parent="1" source="EjjpVAKhFwh3DGJ-wKah-29" target="EjjpVAKhFwh3DGJ-wKah-33">
          <mxGeometry relative="1" as="geometry" />
        </mxCell>
        <mxCell id="EjjpVAKhFwh3DGJ-wKah-24" style="rounded=0;orthogonalLoop=1;jettySize=auto;html=1;exitX=1;exitY=1;exitDx=0;exitDy=0;endArrow=none;endFill=0;" edge="1" parent="1" source="EjjpVAKhFwh3DGJ-wKah-29" target="EjjpVAKhFwh3DGJ-wKah-31">
          <mxGeometry relative="1" as="geometry" />
        </mxCell>
        <mxCell id="EjjpVAKhFwh3DGJ-wKah-25" style="rounded=0;orthogonalLoop=1;jettySize=auto;html=1;exitX=0.75;exitY=1;exitDx=0;exitDy=0;entryX=0;entryY=0.5;entryDx=0;entryDy=0;endArrow=none;endFill=0;" edge="1" parent="1" source="EjjpVAKhFwh3DGJ-wKah-29" target="EjjpVAKhFwh3DGJ-wKah-36">
          <mxGeometry relative="1" as="geometry" />
        </mxCell>
        <mxCell id="EjjpVAKhFwh3DGJ-wKah-26" style="rounded=0;orthogonalLoop=1;jettySize=auto;html=1;exitX=0.25;exitY=1;exitDx=0;exitDy=0;strokeColor=none;" edge="1" parent="1" source="EjjpVAKhFwh3DGJ-wKah-29" target="EjjpVAKhFwh3DGJ-wKah-37">
          <mxGeometry relative="1" as="geometry" />
        </mxCell>
        <mxCell id="EjjpVAKhFwh3DGJ-wKah-27" style="rounded=0;orthogonalLoop=1;jettySize=auto;html=1;exitX=0.75;exitY=1;exitDx=0;exitDy=0;entryX=0;entryY=0;entryDx=0;entryDy=0;endArrow=none;endFill=0;" edge="1" parent="1" source="EjjpVAKhFwh3DGJ-wKah-29" target="EjjpVAKhFwh3DGJ-wKah-37">
          <mxGeometry relative="1" as="geometry" />
        </mxCell>
        <mxCell id="EjjpVAKhFwh3DGJ-wKah-28" style="rounded=0;orthogonalLoop=1;jettySize=auto;html=1;exitX=1;exitY=1;exitDx=0;exitDy=0;entryX=0;entryY=0;entryDx=0;entryDy=0;endArrow=none;endFill=0;" edge="1" parent="1" source="EjjpVAKhFwh3DGJ-wKah-29" target="EjjpVAKhFwh3DGJ-wKah-32">
          <mxGeometry relative="1" as="geometry" />
        </mxCell>
        <mxCell id="EjjpVAKhFwh3DGJ-wKah-29" value="Blood Packet" style="rounded=1;arcSize=10;whiteSpace=wrap;html=1;align=center;" vertex="1" parent="1">
          <mxGeometry x="930" y="590" width="100" height="40" as="geometry" />
        </mxCell>
        <mxCell id="EjjpVAKhFwh3DGJ-wKah-30" value="&lt;u&gt;PacketID&lt;/u&gt;" style="ellipse;whiteSpace=wrap;html=1;align=center;" vertex="1" parent="1">
          <mxGeometry x="930" y="330" width="100" height="40" as="geometry" />
        </mxCell>
        <mxCell id="EjjpVAKhFwh3DGJ-wKah-31" value="Volume" style="ellipse;whiteSpace=wrap;html=1;align=center;" vertex="1" parent="1">
          <mxGeometry x="1290" y="530" width="100" height="40" as="geometry" />
        </mxCell>
        <mxCell id="EjjpVAKhFwh3DGJ-wKah-32" value="Blood Group" style="ellipse;whiteSpace=wrap;html=1;align=center;" vertex="1" parent="1">
          <mxGeometry x="1290" y="740" width="100" height="40" as="geometry" />
        </mxCell>
        <mxCell id="EjjpVAKhFwh3DGJ-wKah-33" value="Status" style="ellipse;whiteSpace=wrap;html=1;align=center;" vertex="1" parent="1">
          <mxGeometry x="1290" y="480" width="100" height="40" as="geometry" />
        </mxCell>
        <mxCell id="EjjpVAKhFwh3DGJ-wKah-34" value="&lt;u&gt;SeekerID&lt;/u&gt;" style="ellipse;whiteSpace=wrap;html=1;align=center;" vertex="1" parent="1">
          <mxGeometry x="220" y="930" width="100" height="40" as="geometry" />
        </mxCell>
        <mxCell id="EjjpVAKhFwh3DGJ-wKah-35" value="Donation Date" style="ellipse;whiteSpace=wrap;html=1;align=center;" vertex="1" parent="1">
          <mxGeometry x="1210" y="330" width="100" height="40" as="geometry" />
        </mxCell>
        <mxCell id="EjjpVAKhFwh3DGJ-wKah-36" value="SeekerID" style="ellipse;whiteSpace=wrap;html=1;align=center;" vertex="1" parent="1">
          <mxGeometry x="1300" y="590" width="100" height="40" as="geometry" />
        </mxCell>
        <mxCell id="EjjpVAKhFwh3DGJ-wKah-37" value="DepotID" style="ellipse;whiteSpace=wrap;html=1;align=center;" vertex="1" parent="1">
          <mxGeometry x="1320" y="660" width="100" height="40" as="geometry" />
        </mxCell>
        <mxCell id="EjjpVAKhFwh3DGJ-wKah-38" value="DonorID" style="ellipse;whiteSpace=wrap;html=1;align=center;" vertex="1" parent="1">
          <mxGeometry x="1060" y="320" width="100" height="40" as="geometry" />
        </mxCell>
        <mxCell id="EjjpVAKhFwh3DGJ-wKah-39" style="edgeStyle=orthogonalEdgeStyle;rounded=0;orthogonalLoop=1;jettySize=auto;html=1;exitX=0.5;exitY=1;exitDx=0;exitDy=0;entryX=0;entryY=0.5;entryDx=0;entryDy=0;startArrow=none;startFill=0;endArrow=ERmandOne;endFill=0;startSize=8;" edge="1" parent="1" source="EjjpVAKhFwh3DGJ-wKah-70" target="EjjpVAKhFwh3DGJ-wKah-43">
          <mxGeometry relative="1" as="geometry" />
        </mxCell>
        <mxCell id="EjjpVAKhFwh3DGJ-wKah-40" style="rounded=0;orthogonalLoop=1;jettySize=auto;html=1;exitX=1;exitY=0;exitDx=0;exitDy=0;entryX=0;entryY=0.5;entryDx=0;entryDy=0;endArrow=none;endFill=0;" edge="1" parent="1" source="EjjpVAKhFwh3DGJ-wKah-43" target="EjjpVAKhFwh3DGJ-wKah-56">
          <mxGeometry relative="1" as="geometry" />
        </mxCell>
        <mxCell id="EjjpVAKhFwh3DGJ-wKah-41" style="rounded=0;orthogonalLoop=1;jettySize=auto;html=1;exitX=1;exitY=0.5;exitDx=0;exitDy=0;endArrow=none;endFill=0;" edge="1" parent="1" source="EjjpVAKhFwh3DGJ-wKah-43" target="EjjpVAKhFwh3DGJ-wKah-57">
          <mxGeometry relative="1" as="geometry" />
        </mxCell>
        <mxCell id="EjjpVAKhFwh3DGJ-wKah-42" style="rounded=0;orthogonalLoop=1;jettySize=auto;html=1;exitX=1;exitY=1;exitDx=0;exitDy=0;entryX=0;entryY=0.5;entryDx=0;entryDy=0;endArrow=none;endFill=0;" edge="1" parent="1" source="EjjpVAKhFwh3DGJ-wKah-43" target="EjjpVAKhFwh3DGJ-wKah-58">
          <mxGeometry relative="1" as="geometry" />
        </mxCell>
        <mxCell id="EjjpVAKhFwh3DGJ-wKah-43" value="Depot" style="rounded=1;arcSize=10;whiteSpace=wrap;html=1;align=center;" vertex="1" parent="1">
          <mxGeometry x="1090" y="960" width="100" height="40" as="geometry" />
        </mxCell>
        <mxCell id="EjjpVAKhFwh3DGJ-wKah-44" style="rounded=0;orthogonalLoop=1;jettySize=auto;html=1;exitX=0.5;exitY=0;exitDx=0;exitDy=0;entryX=0.5;entryY=1;entryDx=0;entryDy=0;endArrow=none;endFill=0;" edge="1" parent="1" source="EjjpVAKhFwh3DGJ-wKah-55" target="EjjpVAKhFwh3DGJ-wKah-61">
          <mxGeometry relative="1" as="geometry" />
        </mxCell>
        <mxCell id="EjjpVAKhFwh3DGJ-wKah-45" style="rounded=0;orthogonalLoop=1;jettySize=auto;html=1;exitX=0.25;exitY=0;exitDx=0;exitDy=0;entryX=1;entryY=1;entryDx=0;entryDy=0;endArrow=none;endFill=0;" edge="1" parent="1" source="EjjpVAKhFwh3DGJ-wKah-55" target="EjjpVAKhFwh3DGJ-wKah-34">
          <mxGeometry relative="1" as="geometry" />
        </mxCell>
        <mxCell id="EjjpVAKhFwh3DGJ-wKah-46" style="rounded=0;orthogonalLoop=1;jettySize=auto;html=1;exitX=0.75;exitY=0;exitDx=0;exitDy=0;entryX=0;entryY=1;entryDx=0;entryDy=0;endArrow=none;endFill=0;" edge="1" parent="1" source="EjjpVAKhFwh3DGJ-wKah-55" target="EjjpVAKhFwh3DGJ-wKah-67">
          <mxGeometry relative="1" as="geometry" />
        </mxCell>
        <mxCell id="EjjpVAKhFwh3DGJ-wKah-47" style="rounded=0;orthogonalLoop=1;jettySize=auto;html=1;exitX=0;exitY=0;exitDx=0;exitDy=0;entryX=1;entryY=0.5;entryDx=0;entryDy=0;endArrow=baseDash;endFill=0;" edge="1" parent="1" source="EjjpVAKhFwh3DGJ-wKah-55" target="EjjpVAKhFwh3DGJ-wKah-60">
          <mxGeometry relative="1" as="geometry" />
        </mxCell>
        <mxCell id="EjjpVAKhFwh3DGJ-wKah-48" style="rounded=0;orthogonalLoop=1;jettySize=auto;html=1;exitX=0;exitY=0.5;exitDx=0;exitDy=0;endArrow=none;endFill=0;" edge="1" parent="1" source="EjjpVAKhFwh3DGJ-wKah-55" target="EjjpVAKhFwh3DGJ-wKah-66">
          <mxGeometry relative="1" as="geometry" />
        </mxCell>
        <mxCell id="EjjpVAKhFwh3DGJ-wKah-49" style="rounded=0;orthogonalLoop=1;jettySize=auto;html=1;exitX=0;exitY=1;exitDx=0;exitDy=0;entryX=1;entryY=0;entryDx=0;entryDy=0;endArrow=none;endFill=0;" edge="1" parent="1" source="EjjpVAKhFwh3DGJ-wKah-55" target="EjjpVAKhFwh3DGJ-wKah-65">
          <mxGeometry relative="1" as="geometry" />
        </mxCell>
        <mxCell id="EjjpVAKhFwh3DGJ-wKah-50" style="rounded=0;orthogonalLoop=1;jettySize=auto;html=1;exitX=1;exitY=1;exitDx=0;exitDy=0;endArrow=none;endFill=0;" edge="1" parent="1" source="EjjpVAKhFwh3DGJ-wKah-55" target="EjjpVAKhFwh3DGJ-wKah-63">
          <mxGeometry relative="1" as="geometry" />
        </mxCell>
        <mxCell id="EjjpVAKhFwh3DGJ-wKah-51" style="rounded=0;orthogonalLoop=1;jettySize=auto;html=1;exitX=0.75;exitY=1;exitDx=0;exitDy=0;entryX=0.5;entryY=0;entryDx=0;entryDy=0;endArrow=none;endFill=0;" edge="1" parent="1" source="EjjpVAKhFwh3DGJ-wKah-55" target="EjjpVAKhFwh3DGJ-wKah-62">
          <mxGeometry relative="1" as="geometry" />
        </mxCell>
        <mxCell id="EjjpVAKhFwh3DGJ-wKah-52" style="rounded=0;orthogonalLoop=1;jettySize=auto;html=1;exitX=0.25;exitY=1;exitDx=0;exitDy=0;entryX=1;entryY=0;entryDx=0;entryDy=0;endArrow=none;endFill=0;" edge="1" parent="1" source="EjjpVAKhFwh3DGJ-wKah-55" target="EjjpVAKhFwh3DGJ-wKah-64">
          <mxGeometry relative="1" as="geometry" />
        </mxCell>
        <mxCell id="EjjpVAKhFwh3DGJ-wKah-53" style="rounded=0;orthogonalLoop=1;jettySize=auto;html=1;exitX=1;exitY=0.75;exitDx=0;exitDy=0;entryX=0;entryY=0.5;entryDx=0;entryDy=0;endArrow=none;endFill=0;startArrow=ERmandOne;startFill=0;startSize=8;" edge="1" parent="1" source="EjjpVAKhFwh3DGJ-wKah-55" target="EjjpVAKhFwh3DGJ-wKah-74">
          <mxGeometry relative="1" as="geometry" />
        </mxCell>
        <mxCell id="EjjpVAKhFwh3DGJ-wKah-55" value="Seeker" style="rounded=1;arcSize=10;whiteSpace=wrap;html=1;align=center;" vertex="1" parent="1">
          <mxGeometry x="480" y="1000" width="100" height="40" as="geometry" />
        </mxCell>
        <mxCell id="EjjpVAKhFwh3DGJ-wKah-56" value="Name" style="ellipse;whiteSpace=wrap;html=1;align=center;" vertex="1" parent="1">
          <mxGeometry x="1280" y="890" width="100" height="40" as="geometry" />
        </mxCell>
        <mxCell id="EjjpVAKhFwh3DGJ-wKah-57" value="&lt;u&gt;DepotID&lt;/u&gt;" style="ellipse;whiteSpace=wrap;html=1;align=center;" vertex="1" parent="1">
          <mxGeometry x="1280" y="980" width="100" height="40" as="geometry" />
        </mxCell>
        <mxCell id="EjjpVAKhFwh3DGJ-wKah-58" value="Address" style="ellipse;whiteSpace=wrap;html=1;align=center;" vertex="1" parent="1">
          <mxGeometry x="1280" y="1050" width="100" height="40" as="geometry" />
        </mxCell>
        <mxCell id="EjjpVAKhFwh3DGJ-wKah-59" value="expiry" style="ellipse;whiteSpace=wrap;html=1;align=center;" vertex="1" parent="1">
          <mxGeometry x="1260" y="420" width="100" height="40" as="geometry" />
        </mxCell>
        <mxCell id="EjjpVAKhFwh3DGJ-wKah-60" value="Name" style="ellipse;whiteSpace=wrap;html=1;align=center;" vertex="1" parent="1">
          <mxGeometry x="205" y="990" width="100" height="40" as="geometry" />
        </mxCell>
        <mxCell id="EjjpVAKhFwh3DGJ-wKah-61" value="Sex&lt;br&gt;" style="ellipse;whiteSpace=wrap;html=1;align=center;" vertex="1" parent="1">
          <mxGeometry x="260" y="870" width="100" height="40" as="geometry" />
        </mxCell>
        <mxCell id="EjjpVAKhFwh3DGJ-wKah-62" value="Blood Group" style="ellipse;whiteSpace=wrap;html=1;align=center;" vertex="1" parent="1">
          <mxGeometry x="395" y="1180" width="100" height="40" as="geometry" />
        </mxCell>
        <mxCell id="EjjpVAKhFwh3DGJ-wKah-63" value="Address" style="ellipse;whiteSpace=wrap;html=1;align=center;" vertex="1" parent="1">
          <mxGeometry x="490" y="1170" width="100" height="40" as="geometry" />
        </mxCell>
        <mxCell id="EjjpVAKhFwh3DGJ-wKah-64" value="Phone Num" style="ellipse;whiteSpace=wrap;html=1;align=center;" vertex="1" parent="1">
          <mxGeometry x="290" y="1150" width="100" height="40" as="geometry" />
        </mxCell>
        <mxCell id="EjjpVAKhFwh3DGJ-wKah-65" value="CNIC" style="ellipse;whiteSpace=wrap;html=1;align=center;" vertex="1" parent="1">
          <mxGeometry x="205" y="1110" width="100" height="40" as="geometry" />
        </mxCell>
        <mxCell id="EjjpVAKhFwh3DGJ-wKah-66" value="Registration Date" style="ellipse;whiteSpace=wrap;html=1;align=center;" vertex="1" parent="1">
          <mxGeometry x="205" y="1050" width="100" height="40" as="geometry" />
        </mxCell>
        <mxCell id="EjjpVAKhFwh3DGJ-wKah-67" value="Age" style="ellipse;whiteSpace=wrap;html=1;align=center;" vertex="1" parent="1">
          <mxGeometry x="360" y="830" width="100" height="40" as="geometry" />
        </mxCell>
        <mxCell id="EjjpVAKhFwh3DGJ-wKah-68" style="edgeStyle=orthogonalEdgeStyle;rounded=0;orthogonalLoop=1;jettySize=auto;html=1;exitX=0.5;exitY=1;exitDx=0;exitDy=0;" edge="1" parent="1" source="EjjpVAKhFwh3DGJ-wKah-59" target="EjjpVAKhFwh3DGJ-wKah-59">
          <mxGeometry relative="1" as="geometry" />
        </mxCell>
        <mxCell id="EjjpVAKhFwh3DGJ-wKah-69" style="edgeStyle=orthogonalEdgeStyle;rounded=0;orthogonalLoop=1;jettySize=auto;html=1;exitX=0.5;exitY=0;exitDx=0;exitDy=0;entryX=0.5;entryY=1;entryDx=0;entryDy=0;endArrow=ERmany;endFill=0;endSize=8;" edge="1" parent="1" source="EjjpVAKhFwh3DGJ-wKah-70" target="EjjpVAKhFwh3DGJ-wKah-29">
          <mxGeometry relative="1" as="geometry" />
        </mxCell>
        <mxCell id="EjjpVAKhFwh3DGJ-wKah-70" value="STORE" style="shape=rhombus;perimeter=rhombusPerimeter;whiteSpace=wrap;html=1;align=center;" vertex="1" parent="1">
          <mxGeometry x="920" y="740" width="120" height="60" as="geometry" />
        </mxCell>
        <mxCell id="EjjpVAKhFwh3DGJ-wKah-72" value="DONATE" style="shape=rhombus;perimeter=rhombusPerimeter;whiteSpace=wrap;html=1;align=center;" vertex="1" parent="1">
          <mxGeometry x="520" y="680" width="120" height="60" as="geometry" />
        </mxCell>
        <mxCell id="EjjpVAKhFwh3DGJ-wKah-73" style="rounded=0;orthogonalLoop=1;jettySize=auto;html=1;entryX=0;entryY=0.5;entryDx=0;entryDy=0;endArrow=ERoneToMany;endFill=0;endSize=9;exitX=1;exitY=0.5;exitDx=0;exitDy=0;" edge="1" parent="1" source="EjjpVAKhFwh3DGJ-wKah-72" target="EjjpVAKhFwh3DGJ-wKah-29">
          <mxGeometry relative="1" as="geometry">
            <mxPoint x="690" y="880" as="sourcePoint" />
          </mxGeometry>
        </mxCell>
        <mxCell id="EjjpVAKhFwh3DGJ-wKah-74" value="LOOK FOR" style="shape=rhombus;perimeter=rhombusPerimeter;whiteSpace=wrap;html=1;align=center;" vertex="1" parent="1">
          <mxGeometry x="640" y="1000" width="120" height="60" as="geometry" />
        </mxCell>
        <mxCell id="EjjpVAKhFwh3DGJ-wKah-75" style="rounded=0;orthogonalLoop=1;jettySize=auto;html=1;entryX=0.5;entryY=0;entryDx=0;entryDy=0;endArrow=none;endFill=0;startArrow=ERmandOne;startFill=0;startSize=8;" edge="1" parent="1" target="EjjpVAKhFwh3DGJ-wKah-72">
          <mxGeometry relative="1" as="geometry">
            <mxPoint x="430" y="520" as="sourcePoint" />
            <mxPoint x="520" y="550" as="targetPoint" />
          </mxGeometry>
        </mxCell>
        <mxCell id="EjjpVAKhFwh3DGJ-wKah-76" style="rounded=0;orthogonalLoop=1;jettySize=auto;html=1;entryX=0;entryY=0.5;entryDx=0;entryDy=0;endArrow=ERoneToMany;endFill=0;endSize=9;exitX=1;exitY=0.5;exitDx=0;exitDy=0;" edge="1" parent="1" source="EjjpVAKhFwh3DGJ-wKah-74">
          <mxGeometry relative="1" as="geometry">
            <mxPoint x="660" y="730" as="sourcePoint" />
            <mxPoint x="950" y="630" as="targetPoint" />
          </mxGeometry>
        </mxCell>
      </root>
    </mxGraphModel>
  </diagram>
</mxfile>
